HIERARCHY
ROOT Hips
{
	OFFSET 0.00000 0.00000 0.00000
	CHANNELS 6 Xposition Yposition Zposition Zrotation Yrotation Xrotation 
	JOINT LHipJoint
	{
		OFFSET 0 0 0
		CHANNELS 3 Zrotation Yrotation Xrotation
		JOINT LeftUpLeg
		{
			OFFSET 1.37733 -1.58235 0.71371
			CHANNELS 3 Zrotation Yrotation Xrotation
			JOINT LeftLeg
			{
				OFFSET 2.33951 -6.42775 0.00000
				CHANNELS 3 Zrotation Yrotation Xrotation
				JOINT LeftFoot
				{
					OFFSET 2.30523 -6.33358 0.00000
					CHANNELS 3 Zrotation Yrotation Xrotation
					JOINT LeftToeBase
					{
						OFFSET 0.05388 -0.14857 1.53863
						CHANNELS 3 Zrotation Yrotation Xrotation
						End Site
						{
							OFFSET 0.00000 -0.00000 0.79208
						}
					}
				}
			}
		}
	}
	JOINT RHipJoint
	{
		OFFSET 0 0 0
		CHANNELS 3 Zrotation Yrotation Xrotation
		JOINT RightUpLeg
		{
			OFFSET -1.47839 -1.58235 0.71371
			CHANNELS 3 Zrotation Yrotation Xrotation
			JOINT RightLeg
			{
				OFFSET -2.26534 -6.22397 0.00000
				CHANNELS 3 Zrotation Yrotation Xrotation
				JOINT RightFoot
				{
					OFFSET -2.27037 -6.23779 0.00000
					CHANNELS 3 Zrotation Yrotation Xrotation
					JOINT RightToeBase
					{
						OFFSET -0.09543 -0.26220 1.62615
						CHANNELS 3 Zrotation Yrotation Xrotation
						End Site
						{
							OFFSET -0.00000 -0.00000 0.83991
						}
					}
				}
			}
		}
	}
	JOINT LowerBack
	{
		OFFSET 0 0 0
		CHANNELS 3 Zrotation Yrotation Xrotation
		JOINT Spine
		{
			OFFSET 0.00101 1.81877 -0.00412
			CHANNELS 3 Zrotation Yrotation Xrotation
			JOINT Spine1
			{
				OFFSET 0.00322 1.81934 -0.03962
				CHANNELS 3 Zrotation Yrotation Xrotation
				JOINT Neck
				{
					OFFSET 0 0 0
					CHANNELS 3 Zrotation Yrotation Xrotation
					JOINT Neck1
					{
						OFFSET -0.13795 1.66192 0.22650
						CHANNELS 3 Zrotation Yrotation Xrotation
						JOINT Head
						{
							OFFSET 0.14844 1.65995 -0.39123
							CHANNELS 3 Zrotation Yrotation Xrotation
							End Site
							{
								OFFSET 0.04109 1.72502 -0.16783
							}
						}
					}
				}
				JOINT LeftShoulder
				{
					OFFSET 0 0 0
					CHANNELS 3 Zrotation Yrotation Xrotation
					JOINT LeftArm
					{
						OFFSET 3.25446 1.41983 0.32106
						CHANNELS 3 Zrotation Yrotation Xrotation
						JOINT LeftForeArm
						{
							OFFSET 4.05444 -0.00000 -0.00000
							CHANNELS 3 Zrotation Yrotation Xrotation
							JOINT LeftHand
							{
								OFFSET 3.21205 -0.00000 0.00000
								CHANNELS 3 Zrotation Yrotation Xrotation
								JOINT LeftFingerBase
								{
									OFFSET 0 0 0
									CHANNELS 3 Zrotation Yrotation Xrotation
									JOINT LeftHandIndex1
									{
										OFFSET 0.70741 -0.00000 0.00000
										CHANNELS 3 Zrotation Yrotation Xrotation
										End Site
										{
											OFFSET 0.57033 -0.00000 0.00000
										}
									}
								}
								JOINT LThumb
								{
									OFFSET 0 0 0
									CHANNELS 3 Zrotation Yrotation Xrotation
									End Site
									{
										OFFSET 0.57904 -0.00000 0.57904
									}
								}
							}
						}
					}
				}
				JOINT RightShoulder
				{
					OFFSET 0 0 0
					CHANNELS 3 Zrotation Yrotation Xrotation
					JOINT RightArm
					{
						OFFSET -3.30007 1.25485 0.33947
						CHANNELS 3 Zrotation Yrotation Xrotation
						JOINT RightForeArm
						{
							OFFSET -3.74048 -0.00000 -0.00000
							CHANNELS 3 Zrotation Yrotation Xrotation
							JOINT RightHand
							{
								OFFSET -3.16030 -0.00000 0.00000
								CHANNELS 3 Zrotation Yrotation Xrotation
								JOINT RightFingerBase
								{
									OFFSET 0 0 0
									CHANNELS 3 Zrotation Yrotation Xrotation
									JOINT RightHandIndex1
									{
										OFFSET -0.71703 -0.00000 0.00000
										CHANNELS 3 Zrotation Yrotation Xrotation
										End Site
										{
											OFFSET -0.57809 -0.00000 0.00000
										}
									}
								}
								JOINT RThumb
								{
									OFFSET 0 0 0
									CHANNELS 3 Zrotation Yrotation Xrotation
									End Site
									{
										OFFSET -0.58691 -0.00000 0.58691
									}
								}
							}
						}
					}
				}
			}
		}
	}
}
MOTION
Frames: 6
Frame Time: .0083333
-8.0644 16.9522 -2.3668 0 0 0 0 0 0 -21 0 0 0 0 0 0 0 0 0 0 0 0 0 0 21 0 0 0 0 0 0 0 0 0 0 0 0 0 0 0 0 0 0 0 0 0 0 -16 0 0 21 0 0 11 0 0 0 -8 0 0 0 0 0 0 0 0 0 0 0 0 0 0 0 0 0 0 0 0 8 0 0 0 0 0 0 0 0 0 0 0 0 0 0 0 0 0
-8.0644 16.9522 -2.3668 -2.9421 -9.6027 5.7704 0.0000 0.0000 0.0000 -26.1098 -21.3375 6.4930 0.0967 2.0056 5.5211 -0.1483 -13.2263 16.8710 1.2231 -7.0146 -19.7588 0.0000 0.0000 0.0000 21.6861 4.1972 4.3249 -1.9984 -8.8627 25.3668 -0.8156 10.8477 -16.7253 -10.5016 17.6824 -61.1521 -0.4233 2.0480 -2.5583 -0.5786 2.7573 0.7055 -0.2350 1.3742 2.1649 1.0592 8.1539 -22.9554 1.4023 10.8652 26.5775 2.2367 5.0982 12.6000 0.0000 0.0000 0.0000 -77.9531 -4.6805 11.2596 9.8469 -16.4998 -1.4312 -0.0000 0.0000 -15.1749 17.8713 -19.9832 -6.2882 -7.1250 0.0000 -0.0000 -6.7644 9.1863 5.6382 0.0000 0.0000 0.0000 86.5929 -5.3607 -0.1517 -17.9328 28.0711 -4.5176 0.0000 0.0000 28.0219 -31.3567 14.2306 -8.5194 7.1250 -0.0000 -0.0000 -2.6156 -13.4518 -1.9375
-8.0602 16.9500 -2.3552 -2.8523 -9.6057 5.7593 0.0000 0.0000 0.0000 -26.3009 -21.3858 6.5739 0.0980 2.0188 5.5575 -0.2466 -13.8933 16.5600 0.9124 -6.0866 -17.0358 0.0000 0.0000 0.0000 21.1429 3.5242 3.5083 -2.1372 -9.1463 26.2540 -0.8414 10.0587 -16.7842 -10.0663 17.4469 -59.7096 -0.4868 2.0484 -2.7042 -0.5934 2.7617 0.7176 -0.2085 1.3753 2.2570 0.7180 8.1645 -22.8402 1.7725 10.8865 26.4312 2.4162 5.1332 12.4684 -0.0000 0.0000 0.0000 -78.0311 -4.7090 10.7426 9.7138 -16.2906 -1.3936 -0.0000 0.0000 -14.8434 24.3994 -13.2650 -5.9421 -7.1250 0.0000 -0.0000 -2.0243 15.4726 1.4118 -0.0000 0.0000 0.0000 86.5892 -5.2410 -0.3014 -17.8070 27.9094 -4.4585 0.0000 0.0000 28.0487 -29.9702 12.9040 -7.3380 7.1250 -0.0000 -0.0000 -1.8212 -15.1713 -1.2818
-8.0533 16.9474 -2.3481 -2.8126 -9.5347 5.7857 0.0000 0.0000 0.0000 -26.3199 -21.2840 6.4330 0.1012 2.0516 5.6482 -0.3062 -14.1707 16.1529 0.7666 -5.5911 -15.6024 0.0000 0.0000 0.0000 20.6722 2.9158 2.6338 -2.2894 -9.4446 27.1961 -0.9153 8.7913 -17.2382 -9.0121 16.8155 -56.1318 -0.5119 2.0300 -2.7786 -0.5752 2.7380 0.6733 -0.1752 1.3630 2.2511 0.8011 8.2730 -22.7626 1.8298 10.9972 26.4956 2.4422 5.1983 12.4787 0.0000 -0.0000 0.0000 -78.1805 -4.6642 10.2554 9.6039 -16.1176 -1.3629 -0.0000 0.0000 -14.5612 26.0540 -14.2546 -6.8644 -7.1250 0.0000 -0.0000 -0.9653 14.1910 0.6993 0.0000 -0.0000 0.0000 86.5699 -5.2525 -0.3815 -17.7549 27.8422 -4.4342 0.0000 0.0000 28.0754 -28.3044 11.4026 -6.0775 7.1250 -0.0000 -0.0000 -0.8087 -17.0783 -0.5356
-8.0448 16.9434 -2.3411 -2.9643 -9.4565 5.7740 0.0000 0.0000 0.0000 -26.0911 -21.0493 6.2721 0.1047 2.0863 5.7441 -0.2864 -14.0434 16.2271 0.8412 -5.8505 -16.3512 0.0000 0.0000 0.0000 20.0651 1.5340 1.4705 -2.4598 -9.7644 28.2170 -1.0055 7.0333 -17.9035 -7.5347 15.7661 -50.8687 -0.2715 2.0353 -2.8110 -0.5416 2.7359 0.6693 -0.2737 1.3650 2.2748 1.3114 8.5474 -22.6360 1.6552 11.2633 26.6117 2.3443 5.3399 12.5455 -0.0000 -0.0000 0.0000 -78.2653 -4.6124 10.1707 9.5177 -15.9816 -1.3391 -0.0000 0.0000 -14.5983 25.0162 -13.8783 -6.3866 -7.1250 0.0000 -0.0000 -1.6430 14.7330 1.1716 -0.0000 -0.0000 0.0000 86.5669 -5.2648 -0.4549 -17.7575 27.8455 -4.4354 0.0000 0.0000 28.0783 -26.5353 9.8365 -4.8760 7.1250 -0.0000 -0.0000 0.3248 -19.0118 0.2013
-8.0399 16.9385 -2.3331 -3.1001 -9.4455 5.7731 0.0000 0.0000 0.0000 -25.9344 -20.9331 6.2017 0.1075 2.1143 5.8216 -0.1797 -13.4466 16.7811 1.1381 -6.7749 -19.0502 0.0000 0.0000 0.0000 19.8683 0.8956 0.7854 -2.5820 -9.9856 28.9300 -1.0058 6.9643 -17.9036 -7.0130 15.3428 -48.9235 -0.0946 2.0467 -2.8874 -0.5014 2.7442 0.6721 -0.3277 1.3712 2.3269 1.5471 8.5381 -22.6314 1.3253 11.2659 26.5916 2.1866 5.3174 12.5780 0.0000 -0.0000 0.0000 -78.3246 -4.4958 10.1408 9.4935 -15.9434 -1.3324 -0.0000 0.0000 -14.6428 23.9406 -13.3432 -5.8504 -7.1250 0.0000 -0.0000 -2.3441 15.4400 1.6368 0.0000 -0.0000 0.0000 86.4972 -5.2683 -0.5774 -17.7678 27.8588 -4.4402 0.0000 0.0000 28.1268 -24.6187 8.1808 -3.7307 7.1250 -0.0000 -0.0000 1.6188 -20.9954 0.9317
